<?xml version="1.0" encoding="UTF-8" standalone="no"?>
<!-- Generator: Adobe Illustrator 17.0.0, SVG Export Plug-In . SVG Version: 6.00 Build 0)  -->

<svg
   xmlns:dc="http://purl.org/dc/elements/1.1/"
   xmlns:cc="http://creativecommons.org/ns#"
   xmlns:rdf="http://www.w3.org/1999/02/22-rdf-syntax-ns#"
   xmlns:svg="http://www.w3.org/2000/svg"
   xmlns="http://www.w3.org/2000/svg"
   xmlns:sodipodi="http://sodipodi.sourceforge.net/DTD/sodipodi-0.dtd"
   xmlns:inkscape="http://www.inkscape.org/namespaces/inkscape"
   version="1.1"
   id="Layer_1"
   x="0px"
   y="0px"
   width="230px"
   height="23px"
   viewBox="0 0 230 23"
   style="enable-background:new 0 0 230 23;"
   xml:space="preserve"
   sodipodi:docname="logo-ap.svg"
   inkscape:version="0.92.4 (5da689c313, 2019-01-14)"><metadata
   id="metadata4686"><rdf:RDF><cc:Work
       rdf:about=""><dc:format>image/svg+xml</dc:format><dc:type
         rdf:resource="http://purl.org/dc/dcmitype/StillImage" /></cc:Work></rdf:RDF></metadata><defs
   id="defs4684" /><sodipodi:namedview
   pagecolor="#ffffff"
   bordercolor="#666666"
   borderopacity="1"
   objecttolerance="10"
   gridtolerance="10"
   guidetolerance="10"
   inkscape:pageopacity="0"
   inkscape:pageshadow="2"
   inkscape:window-width="1920"
   inkscape:window-height="1001"
   id="namedview4682"
   showgrid="false"
   inkscape:zoom="4"
   inkscape:cx="106.26908"
   inkscape:cy="18.821325"
   inkscape:window-x="-9"
   inkscape:window-y="-9"
   inkscape:window-maximized="1"
   inkscape:current-layer="Layer_1" />
<rect
   x="49.292"
   y="0.001"
   style="fill:#b20005;stroke-width:1.01070559"
   width="2.175"
   height="22.986376"
   id="rect4603" />
<polygon
   style="fill:#e60005"
   points="0,22.503 11.252,22.503 11.252,0 "
   id="polygon4605"
   transform="scale(1,1.0215249)" />
<polygon
   style="fill:#b20005"
   points="11.252,22.503 22.504,22.503 11.252,0 "
   id="polygon4607"
   transform="scale(1,1.0215249)" />
<path
   style="fill:#E60005;"
   d="M32.631,0h-7.878v15.754h7.878c4.348,0,7.877-3.53,7.877-7.879C40.507,3.527,36.979,0,32.631,0"
   id="path4609" />
<rect
   x="24.753"
   y="-3.5527137e-15"
   style="fill:#b20005;stroke-width:1.01070511"
   width="5.625"
   height="22.987375"
   id="rect4611" />


<path
   style="fill:#68676c;stroke-width:2.45270061"
   d="m 168.55194,3.8419818 h -7.16925 v -0.03434 c -0.0466,-0.274702 -0.0736,-0.502804 -0.0858,-0.686756 -0.0123,-0.183953 -0.0172,-0.39979 -0.0172,-0.649966 0,-0.61808 0.2232,-1.184654 0.66959,-1.69726899 0.44639,-0.515067 1.19446,-0.7726 2.24667,-0.7726 h 16.1216 c 0.0687,0.480729 0.10302,0.97126899 0.10302,1.47407299 0,0.296777 -0.0491,0.588648 -0.13736,0.873161 -0.0907,0.286966 -0.25262,0.539594 -0.48072,0.755432 -0.22811,0.21829 -0.51998,0.394885 -0.87317,0.532236 -0.35318,0.139804 -0.79467,0.206027 -1.322,0.206027 h -4.32166 V 22.982856 h -4.73371 z"
   id="path4617"
   inkscape:connector-curvature="0" />


<path
   style="fill:#68676c;stroke-width:2.44181538"
   d="m 192.35524,23.059212 h -4.64433 V 0.21358752 c 0.18069,-0.02198 0.37116,-0.0464 0.57627,-0.07081 0.18069,-0.02198 0.35406,-0.04639 0.52498,-0.06837 0.16849,-0.02442 0.33208,-0.03663 0.4908,-0.03663 0.31745,0 0.64953,0.03663 1.00114,0.102556 0.35164,0.07081 0.67883,0.192904 0.98406,0.37604 0.30523,0.183136 0.55918,0.45173598 0.76185,0.80335698 0.20266,0.351622 0.30523,0.813125 0.30523,1.382068 z"
   id="path4623"
   inkscape:connector-curvature="0" />






<path
   style="fill:#68676c;stroke-width:2.44845128"
   d="m 155.13953,23.068106 h -4.65696 V 0.16039438 c 0.18118,-0.0220361 0.37217,-0.0465206 0.57784,-0.0710051 0.18118,-0.0220361 0.35502,-0.0465206 0.52642,-0.0685566 0.16894,-0.0244845 0.33299,-0.0367268 0.49213,-0.0367268 0.3183,0 0.65129,0.0367268 1.00387,0.10283496 0.35257,0.0710051 0.67822,0.19342766 0.98672,0.37706152 0.30606,0.18363384 0.56069,0.4529635 0.76392,0.80554044 0.20322,0.352577 0.30606,0.8153343 0.30606,1.3858235 z"
   id="path4637"
   inkscape:connector-curvature="0" />



<path
   id="path4645"
   style="fill:#68676c;stroke-width:2.76663446"
   d="m 130.38714,0.10139925 c -0.27758,0 -0.528,0.02564 -0.78299,0.04613 -0.019,0.0038 -0.0143,0.02065 -0.0416,0.01852 -0.019,-0.0015 -0.0356,-0.0036 -0.0534,-0.0047 -0.0119,-9.21e-4 -0.0214,-0.0043 -0.0354,-0.0047 0.002,-0.0013 0.007,-0.0026 0.0119,-0.0047 -0.007,4.6e-4 -0.0119,-4.61e-4 -0.019,0 -0.009,0.0028 -0.019,0.0066 -0.0306,0.0093 -0.0143,1.21e-4 -0.0275,-7e-6 -0.0416,0 -0.019,0.0083 -0.007,0.02457 -0.0354,0.02771 -0.007,5.98e-4 -0.0118,-6.91e-4 -0.019,0 v 0.06 0.79827105 0.835189 0.729061 0.715214 0.484502 c 0.323,-0.03435 0.64286,-0.07384 1.00243,-0.07384 1.32833,0 2.44426,0.209381 3.35142,0.627545 0.90394,0.420532 1.65093,0.986839 2.2244,1.702678 0.57344,0.713481 0.97885,1.546605 1.22192,2.496338 0.24308,0.947373 0.36777,1.9454937 0.36777,3.0039117 0,1.056042 -0.13795,2.069834 -0.39742,3.040825 -0.26232,0.968638 -0.66465,1.828223 -1.22193,2.574781 -0.56052,0.751284 -1.30587,1.343947 -2.24221,1.785737 -0.93631,0.441792 -2.08556,0.664461 -3.44628,0.664461 -0.57506,0 -1.08292,-0.07051 -1.57194,-0.161493 v 0.521419 c 0.0871,0.151545 0.13841,0.308042 0.0472,0.49373 -0.009,0.01876 -0.0338,0.02975 -0.0472,0.04613 v 0.332611 c 0,0.01876 -0.007,0.01757 -0.007,0.03229 0.002,0.05216 0.009,0.104227 0.007,0.156887 -0.007,0.215007 -5.9e-4,0.430966 0,0.646004 -9e-4,0.158953 -1.6e-4,0.316334 0,0.475273 5e-5,0.04361 -0.0119,0.08657 0,0.129204 0.007,0.02616 -0.0214,-0.08383 0.0119,-0.07844 0.0449,0.0069 0.0498,0.06078 0.0653,0.09226 0.10046,0.20202 0.10139,0.374907 0.0712,0.586018 l -0.0118,0.10152 c -0.009,0.06384 -0.0629,0.0835 -0.0831,0.13844 0.43141,0.03977 0.85639,0.08307 1.33462,0.08307 2.47849,0 4.59415,-0.306242 6.34694,-0.922862 1.7495,-0.616616 3.18861,-1.458413 4.30636,-2.528638 1.11455,-1.067861 1.93471,-2.310733 2.44979,-3.732972 0.51515,-1.422237 0.77114,-2.927531 0.77114,-4.512786 0,-1.6065107 -0.25254,-3.1029167 -0.77114,-4.4897167 -0.5151,-1.386806 -1.31697,-2.596895 -2.4023,-3.622229 -1.08865,-1.022972 -2.48956,-1.831768 -4.19371,-2.42712305 -1.70742,-0.595356 -3.75149,-0.890558 -6.13929,-0.890558 z M 119.72788,19.762942 c 0.0306,0.01876 0.0244,0.01994 0.0416,0.02771 8e-5,-0.0047 -3e-5,-0.0092 0,-0.014 -0.0143,-0.0033 -0.0406,-0.014 -0.0416,-0.014 z"
   inkscape:connector-curvature="0" />



<path
   style="fill:#68676c;stroke-width:2.34468579"
   d="m 78.415305,21.181872 c -0.131302,0.131302 -0.349359,0.29543 -0.656512,0.492383 -0.304809,0.196955 -0.703405,0.393909 -1.19579,0.588517 -0.492384,0.196954 -1.092624,0.36577 -1.803063,0.511141 -0.71044,0.140681 -1.524046,0.213367 -2.443162,0.213367 -1.772583,0 -3.301317,-0.286053 -4.590895,-0.853466 -1.289577,-0.569759 -2.354065,-1.362262 -3.195807,-2.377511 -0.844087,-1.015249 -1.458394,-2.218072 -1.852301,-3.606127 -0.393908,-1.385709 -0.590861,-2.912099 -0.590861,-4.576826 0,-1.6600387 0.211021,-3.1958075 0.637754,-4.6049635 0.429078,-1.4091562 1.064487,-2.6307374 1.920298,-3.6553651 0.853465,-1.0269724 1.917952,-1.8311999 3.195807,-2.41033731 1.280198,-0.5791374 2.783141,-0.86987843 4.511175,-0.86987843 0.853466,0 1.622522,0.07737466 2.31186,0.2297792 0.689338,0.15240458 1.289577,0.33294537 1.803064,0.53927772 0.513485,0.20867702 0.940218,0.42673282 1.280198,0.65651202 0.337635,0.2297791 0.59555,0.4243881 0.769057,0.574448 0.196954,0.1758514 0.365771,0.3821841 0.508797,0.6213422 0.143025,0.2415026 0.213366,0.5041074 0.213366,0.7878144 0,0.4384563 -0.164128,0.8745678 -0.49004,1.3106793 C 78.419995,5.1911147 78.058913,5.5967454 77.665006,5.9672057 77.402401,5.7046009 77.106971,5.4373067 76.778714,5.1653231 76.452803,4.8909948 76.084689,4.651837 75.681402,4.4431599 75.278116,4.234483 74.818557,4.0609762 74.305071,3.9179504 73.791584,3.7749244 73.217138,3.7022393 72.581727,3.7022393 c -1.113725,0 -2.04691,0.2274345 -2.804243,0.6729247 -0.752645,0.4501797 -1.359919,1.0316618 -1.819477,1.753825 -0.461903,0.7198186 -0.787815,1.5451479 -0.984768,2.4759881 -0.196954,0.9284956 -0.293085,1.8734049 -0.293085,2.8347249 0,1.029318 0.09613,2.011741 0.293085,2.951959 0.196953,0.94022 0.534588,1.772584 1.017593,2.492401 0.478316,0.719819 1.109036,1.301302 1.885128,1.737413 0.77609,0.438456 1.742101,0.656512 2.902721,0.656512 0.609618,0 1.172343,-0.07737 1.688174,-0.229779 0.513485,-0.152404 0.968354,-0.337635 1.362263,-0.558035 0.391562,-0.218057 0.73623,-0.447835 1.031661,-0.686994 0.293085,-0.241502 0.541622,-0.450179 0.736231,-0.623685 0.131303,0.154749 0.286051,0.337634 0.461903,0.558034 0.173507,0.218056 0.337635,0.450181 0.492385,0.689337 0.152404,0.241503 0.283706,0.480662 0.393906,0.719819 0.107852,0.241503 0.164128,0.459559 0.164128,0.656513 0,0.283707 -0.05627,0.52521 -0.164128,0.722162 -0.114883,0.196954 -0.290742,0.417355 -0.529899,0.656513"
   id="path4653"
   inkscape:connector-curvature="0" />








<path
   style="fill:#68676c;stroke-width:2.45959711"
   d="m 118.38101,19.481173 c 0.54897,0 1.00933,0.07127 1.37613,0.206422 0.36681,0.135159 0.66223,0.321922 0.87886,0.548005 0.21663,0.22854 0.37173,0.493941 0.46281,0.791288 0.0936,0.297348 0.14032,0.597153 0.14032,0.8945 0,0.253115 -0.007,0.464452 -0.0197,0.636471 -0.0123,0.17202 -0.0295,0.361241 -0.0517,0.565206 H 106.25921 V 0.0970648 h 14.35709 c 0.0468,0.250657 0.0739,0.464452 0.0862,0.636471 0.0123,0.172019 0.0197,0.3809 0.0197,0.636471 0,0.801118 -0.20925,1.400728 -0.62036,1.803744 -0.41359,0.400559 -1.18166,0.602068 -2.30669,0.602068 h -6.7822 v 5.671719 h 7.29671 v 3.6762962 h -7.29671 v 6.357339 z"
   id="path4671"
   inkscape:connector-curvature="0" />
<path
   id="path4673"
   style="fill:#68676c;stroke-width:2.42767477"
   d="m 90.745384,0.0488284 c -0.86182,0 -1.825349,0.02767 -2.88867,0.08594 -1.063321,0.05826 -2.105852,0.141759 -3.123047,0.25586 V 23.000003 h 4.683597 v -8.556641 h 1.86914 l 3.86914,6.587891 c 0.47582,0.813271 0.9949,1.403902 1.56054,1.765625 0.14069,0.08936 0.30344,0.150251 0.46485,0.212891 0.001,-7.7e-5 0.003,1.58e-4 0.004,0 0.0113,-10e-4 0.0221,-0.0013 0.0332,0.002 0.002,5.5e-4 0.003,0.0013 0.006,0.002 h 0.0176 0.0176 0.0156 0.0371 c 0.001,0 0.003,-1e-6 0.004,0 h 0.0332 0.0312 c 0.0161,7.6e-5 0.0323,2.23e-4 0.0488,0 h 0.002 c 0.0108,-8.84e-4 0.0225,-0.0031 0.0332,-0.0039 0.01,-8.58e-4 0.0196,-3.48e-4 0.0293,0 0.004,1.39e-4 0.008,-2.67e-4 0.0117,0 h 0.002 0.002 c 0.0141,8e-5 0.0268,5.2e-5 0.041,0 0.008,-9e-6 0.0156,-3e-6 0.0234,0 0.008,-2.2e-4 0.0156,-4e-6 0.0234,0 h 0.0234 0.0234 0.0233 0.002 0.002 c 0.01,-0.0049 0.008,-0.01563 0.0234,-0.01563 h 0.0547 0.0234 0.0234 0.0234 0.0234 0.0273 0.0371 0.0293 0.0273 0.0234 0.0254 0.0254 0.002 c 0.0163,0 0.0168,0.01065 0.0234,0.01758 0.01,-0.0058 0.008,-0.01758 0.0254,-0.01758 h 0.041 0.0293 c 0.001,0 0.003,-4.87e-4 0.004,0 0.004,0.0018 0.008,0.0022 0.0117,0.0039 0.01,-0.0015 0.0177,-1.36e-4 0.0273,0 0.009,-5.2e-5 0.02,-1.8e-5 0.0293,0 0.005,1.6e-5 0.0102,5e-6 0.0156,0 0.002,-2e-6 0.003,0.0012 0.004,0.002 0.005,-9.15e-4 0.003,-0.0059 0.01,-0.0059 h 0.0644 0.0293 0.0234 0.0293 0.0234 0.0293 0.0352 0.0781 0.0371 0.0352 0.0213 0.0234 0.0234 0.006 c 0.0113,0 0.0199,-4.66e-4 0.0312,0.0039 0.005,-2.27e-4 0.0108,-1.23e-4 0.0156,0 0.007,2.98e-4 0.0143,2.8e-5 0.0215,0 0.008,6e-6 0.0156,4e-6 0.0234,0 0.009,-5e-6 0.0185,-10e-7 0.0273,0 0.0156,2e-6 0.0138,0.01071 0.0234,0.01563 0.003,-9.27e-4 0.006,-0.0039 0.01,-0.0039 h 0.0254 0.0234 0.0234 0.0234 0.0215 0.0449 0.0195 0.0488 c 0.002,-7.31e-4 0.009,-0.0059 0.008,-0.0059 h 0.002 c 0.0162,-0.0063 0.0248,-0.008 0.043,-0.0039 0.006,0.0013 0.0119,0.0024 0.0176,0.0039 0.005,0.0013 0.002,0.006 0.006,0.0078 0.002,-4.51e-4 0.003,-0.0016 0.006,-0.002 0.01,-8e-5 0.0197,-0.0015 0.0293,0 v 0.002 c 0.009,-0.0035 0.012,-0.0057 0.0215,-0.0059 0.0125,-1.24e-4 0.0266,-2.64e-4 0.0391,0 0.008,-2.11e-4 0.0149,-0.0016 0.0234,-0.002 0.0161,-7e-4 0.0331,0.0042 0.0488,0.0078 h 0.002 c 0.003,-4.27e-4 0.005,-0.0015 0.008,-0.002 0.007,-0.0012 0.0181,8.18e-4 0.0254,0 h 0.0195 0.0273 0.0254 c 0.008,-2e-6 0.017,-2.1e-5 0.0254,0 0.0108,2.9e-5 0.0205,-2.8e-5 0.0312,0 0.007,1.24e-4 0.0148,7.15e-4 0.0215,0 0.0108,-10e-4 0.0187,-10e-4 0.0293,0.002 0.002,5.8e-4 0.006,1.32e-4 0.008,0.002 h 0.002 0.0859 c 0.004,0 0.002,0.0035 0.006,0.0039 0.001,8.9e-5 0.003,-9.4e-5 0.004,0 0.01,-0.0029 0.0194,-0.007 0.0293,-0.0098 0.003,-7.64e-4 0.005,-5e-6 0.008,0 0.0157,7.2e-5 0.0312,1.27e-4 0.0469,0 0.0283,-1.39e-4 0.0576,-0.001 0.0859,0.002 0.0307,-0.0062 0.0555,-0.0108 0.0859,-0.0098 0.0258,-1e-6 0.0523,-5e-6 0.0781,0 0.0512,2e-6 0.10116,-1.1e-5 0.15234,0 0.0416,6.7e-5 0.0834,3.61e-4 0.125,0 0.0342,-1.28e-4 0.0693,10e-5 0.10352,0 0.0185,9.1e-4 -0.0135,0.0011 0.0332,-0.002 0.0466,-0.0031 0.0937,0.0031 0.13867,0.01563 0.004,-3.62e-4 0.002,-0.0039 0.006,-0.0039 0.019,0 0.0228,-2.51e-4 0.0254,0.0059 0.002,-2.16e-4 -0.002,-0.0059 0,-0.0059 h 0.0332 c 0.005,0 0.004,0.0034 0.008,0.0039 0.004,-3.96e-4 0.008,-4.13e-4 0.0117,0 0.005,5.58e-4 0.0105,2.95e-4 0.0156,0.002 0.007,-3.46e-4 0.0143,-0.0023 0.0215,-0.002 h 0.002 0.002 c 0.001,-2.97e-4 0.003,2.61e-4 0.004,0 0.005,-9.74e-4 0.009,-0.0034 0.0137,-0.0039 0.003,-3.78e-4 0.006,0 0.01,0 h 0.0312 0.0762 c 0.001,-3.5e-4 0.003,3.5e-4 0.004,0 0.24481,-0.072 0.48825,-0.146195 0.7207,-0.244141 l -5.601556,-9.375 c 0.5438,-0.201496 1.07375,-0.483978 1.5957,-0.845703 0.51953,-0.361723 0.98669,-0.816051 1.39454,-1.357422 0.40784,-0.5438 0.72693,-1.182383 0.96484,-1.9179686 0.237906,-0.735586 0.357416,-1.566294 0.357416,-2.496094 0,-2.26502 -0.764006,-3.948672 -2.291006,-5.060547 -1.52975,-1.106418 -3.93068,-1.664062 -7.2129,-1.664062 z m 0.4375,3.294922 c 1.29152,0 2.30939,0.289401 3.05469,0.867187 0.75015,0.575359 1.12305,1.57448 1.12305,3.001953 0,1.381347 -0.39561,2.406615 -1.18946,3.0742186 -0.79385,0.667611 -1.85814,1 -3.19336,1 h -1.5957 V 3.4453124 c 0.20392,-0.01942 0.4543,-0.04408 0.74805,-0.06836 0.29374,-0.02185 0.64488,-0.0332 1.05273,-0.0332 z"
   inkscape:connector-curvature="0" />



<path
   id="path4623-9"
   style="fill:#68676c;stroke-width:2.75941992"
   d="m 126.38656,-6.6885747 c 0.0288,0.01797 0.0441,0.04539 0.0694,0.06466 0.0236,-0.02342 0.0502,-0.04203 0.0738,-0.06466 -0.0479,5.11e-4 -0.0955,-9.25e-4 -0.14308,0 z m 0.80373,0.263297 c -0.0166,0.0066 -0.0345,0.0073 -0.0509,0.01396 0.0166,0.0038 0.0305,0.0099 0.0461,0.01395 0.002,-0.0071 -5.9e-4,-0.01774 0.005,-0.02772 z m 2.91476,0.471165 c 0.0213,0.02547 0.039,0.05366 0.0601,0.08315 0.0166,-6.5e-4 0.0338,5.8e-4 0.0509,0 -0.0236,0.004 -0.0331,-0.02722 -0.0509,-0.04158 -0.0326,-0.02649 -0.0414,-0.0262 -0.0601,-0.04158 z m 0.11092,0.08315 c 0.0478,-0.0016 0.0956,-0.0038 0.14332,-0.0047 -0.005,-0.0097 -0.0118,-0.01797 -0.0189,-0.02772 -0.0413,0.01514 -0.0823,0.02471 -0.12464,0.03233 z m 0.59126,5.91727195 c -0.0189,0.01443 -0.0236,0.04111 -0.0601,0.03697 -0.0142,-0.0015 -0.0278,-0.0035 -0.0416,-0.0047 -0.009,-9.22e-4 -0.0166,-0.0043 -0.0276,-0.0047 0.0118,-0.0045 0.0441,-0.01561 0.0324,-0.01395 -0.0213,0.0028 -0.0404,0.01159 -0.0601,0.01845 -0.009,1.04e-4 -0.0189,-3.3e-5 -0.0276,0 -0.0142,0.0083 -0.005,0.0246 -0.0276,0.02772 -0.0627,0.009 -0.14876,0.03183 -0.20789,-0.0047 0.0781,0.01679 0.002,0.01419 -0.0189,0.01395 -0.0189,-3.69e-4 -0.0331,-3.6e-5 -0.0509,0 -0.0255,-3e-6 -0.053,-7e-6 -0.0785,0 -0.0189,7e-6 -0.0331,0 -0.0509,0 h -0.0416 -0.0276 -0.11093 c -0.0118,0 -0.0257,0.0011 -0.0369,0 -0.0281,-0.0028 -0.0307,-0.004 -0.0461,-0.0092 -0.007,0.0026 -0.0189,-3.38e-4 -0.0276,0 -0.0236,0.001 -0.0463,9.6e-4 -0.0694,0 -0.0264,-7.57e-4 -0.052,-5.7e-5 -0.0785,0 -0.0264,-2.1e-5 -0.0521,-7e-6 -0.0785,0 -0.0213,9e-6 -0.044,0 -0.0646,0 h -0.0236 c -0.002,0 -0.0212,0.0013 -0.0189,0 0.0981,-0.04274 0.0252,0.0035 0.0142,0.0092 -0.0118,0.0123 -0.0515,-0.0014 -0.0694,0 h -0.0142 l -0.005,0.0047 c -0.0284,0.01206 -0.0582,0.0043 -0.0878,0.0047 -0.0213,9.53e-4 -0.0432,1.99e-4 -0.0646,0 -0.0236,-8e-5 -0.0459,0 -0.0694,0 -0.0212,-7e-6 -0.038,-2e-6 -0.0601,0 h -0.0646 -0.0509 -0.0554 -0.0276 c -0.009,0 -0.0166,-0.0052 -0.0189,-0.0092 -0.007,2.32e-4 -0.0142,-3.71e-4 -0.0236,0 -0.0119,4.57e-4 -0.0296,0.0028 -0.0416,0 h -0.005 c -0.0213,0.0011 -0.044,0.0017 -0.0646,0 -0.0236,0.0011 -0.0269,-3.31e-4 -0.0369,0 -0.0119,-3.1e-5 -0.0246,-2e-6 -0.0369,0 h -0.005 c -0.0119,-7.92e-4 -0.0245,-2.7e-4 -0.0369,0 -0.035,8.21e-4 -0.071,2.18e-4 -0.10619,0 -0.0333,0.0035 -0.0646,-0.0033 -0.097,-0.0092 -0.0378,-0.0069 0.0366,0.0123 -0.0369,-0.0092 -0.005,-5.41e-4 -0.009,-0.0026 -0.0142,-0.0047 -0.0189,0.0099 -0.0212,0.03079 -0.0509,0.02772 -0.029,-0.0028 -0.0428,-0.008 -0.0694,-0.0092 h -0.005 c -0.007,0.002 -0.0213,0.0028 -0.0277,0.0047 -0.0315,-1.92e-4 -0.0119,0.0021 -0.0276,0 -0.005,8.09e-4 -0.009,-1.2e-5 -0.0142,0 -0.0271,6.6e-5 -0.0213,-1.8e-4 -0.046,0 -0.001,2.6e-5 -0.0296,7.1e-5 -0.0369,0 h -0.005 c 0,-0.0123 -0.002,-0.02341 0,-0.03697 1.7e-4,0.01372 -0.002,0.02455 -0.005,0.03697 -0.0236,2e-6 -0.0461,-7e-6 -0.0694,0 h -0.005 -0.005 -0.005 c -3e-5,-0.0047 -3e-5,-0.0092 0,-0.01395 -0.001,-0.01892 -0.001,-0.01726 -0.005,-0.02318 h -0.0189 c 4.5e-4,0.01679 0.009,0.03697 -0.009,0.03697 h -0.0461 -0.0648 -0.0601 -0.0694 c -0.0308,0.0017 -0.054,-0.004 -0.0832,-0.01845 0.005,0.005 0.0189,0.0076 0,0.0092 -0.0142,0.0014 -0.0165,-1.21e-4 -0.0324,0 -0.0213,0.0015 -0.0402,-0.0047 -0.0601,-0.01395 -0.002,-0.0013 -0.007,7.31e-4 -0.009,0 -0.0142,0.0024 -0.0315,0.0031 -0.0461,0.0047 -0.0142,2.1e-5 -0.0267,-5e-6 -0.0416,0 -0.0189,2e-6 -0.0142,-0.01419 -0.0276,-0.01845 -0.0142,0.0076 -0.007,0.02784 -0.0324,0.02772 -0.005,-2.6e-5 -0.009,6.19e-4 -0.0142,0 -0.0315,-5.94e-4 -0.0655,0.0047 -0.097,0 -0.002,-5.25e-4 -0.065,-0.02152 -0.009,-0.0092 0.0281,0.0061 -0.0556,-0.0057 -0.0276,0 h -0.0554 -0.0554 c -0.0189,2e-6 -0.0369,-7e-6 -0.0553,0 -0.0189,2.6e-5 -0.0366,2.03e-4 -0.0554,0 -0.0212,-9.3e-5 -0.0397,0.001 -0.0601,0 -0.005,-3.5e-4 -0.0119,4.04e-4 -0.0142,0 h -0.005 l -0.005,0.0047 c -0.0118,0.0015 0.007,-0.0026 -0.0236,0.0047 -0.0241,0.0059 -0.0449,0.01041 -0.0694,0.0092 -0.0142,2.31e-4 -0.0264,8.7e-4 -0.0416,0 l 0.005,-0.0047 0.005,-0.0047 c -0.0243,0.01206 -0.0519,0.0018 -0.0785,-0.0047 -0.0142,0.01112 -0.009,0.0277 -0.0369,0.03233 -0.0236,0.0038 -0.0471,0.0073 -0.0694,-0.0047 0,0 -0.005,-0.0047 -0.005,-0.0047 -0.007,-9e-5 -0.0189,-3.1e-5 -0.0276,0 h -0.0416 -0.0236 c -0.001,6.15e-4 -0.002,0.0052 -0.005,0.0047 -0.002,0.0026 -0.002,0.0047 -0.009,0.0047 h -0.0461 c -0.0165,-9.88e-4 -0.0338,-6.8e-5 -0.0509,0 h -0.0832 c -0.0142,-1.16e-4 -0.0279,-7e-6 -0.0416,0 h -0.0646 -0.0509 V 23.087012 h 4.49918 z m -2.67916,0.0693 c -3.8e-4,-0.0123 -2.4e-4,-0.0246 0,-0.03697 h -0.005 c -8.3e-4,0.0076 5e-5,0.01537 0,0.02318 6.8e-4,0.01183 0.002,-9.88e-4 0.005,0.01395 z"
   inkscape:connector-curvature="0" /></svg>